<svg xmlns="http://www.w3.org/2000/svg" xmlns:xlink="http://www.w3.org/1999/xlink" width="500" zoomAndPan="magnify" viewBox="0 0 375 374.999991" height="500" preserveAspectRatio="xMidYMid meet" version="1.0"><defs><g/><clipPath id="58495daeb8"><path d="M 56.488281 151.464844 L 323.324219 151.464844 L 323.324219 223.464844 L 56.488281 223.464844 Z M 56.488281 151.464844 " clip-rule="nonzero"/></clipPath><clipPath id="a09d37c215"><path d="M 63.558594 158.238281 L 187.332031 158.238281 L 187.332031 216.761719 L 63.558594 216.761719 Z M 63.558594 158.238281 " clip-rule="nonzero"/></clipPath></defs><rect x="-37.5" width="450" fill="#ffffff" y="-37.499999" height="449.999989" fill-opacity="1"/><rect x="-37.5" width="450" fill="#ffffff" y="-37.499999" height="449.999989" fill-opacity="1"/><g clip-path="url(#58495daeb8)"><path stroke-linecap="butt" transform="matrix(0.75, 0, 0, 0.75, 56.489269, 151.464864)" fill="none" stroke-linejoin="miter" d="M -0.00131672 -0.0000265384 L 355.779979 -0.0000265384 L 355.779979 96.093736 L -0.00131672 96.093736 Z M -0.00131672 -0.0000265384 " stroke="#000000" stroke-width="6" stroke-opacity="1" stroke-miterlimit="4"/></g><g clip-path="url(#a09d37c215)"><path fill="#000000" d="M 63.558594 158.238281 L 187.238281 158.238281 L 187.238281 216.761719 L 63.558594 216.761719 Z M 63.558594 158.238281 " fill-opacity="1" fill-rule="nonzero"/></g><g fill="#ffffff" fill-opacity="1"><g transform="translate(75.524378, 199.218268)"><g><path d="M 24.21875 -1.609375 C 24.21875 -0.390625 23.757812 0.21875 22.84375 0.21875 C 21.96875 0.21875 21.53125 -0.410156 21.53125 -1.671875 L 21.53125 -15.9375 C 21.53125 -16.582031 21.5 -17.085938 21.4375 -17.453125 C 21.382812 -17.816406 21.269531 -18.09375 21.09375 -18.28125 C 20.925781 -18.476562 20.660156 -18.597656 20.296875 -18.640625 C 19.941406 -18.679688 19.460938 -18.703125 18.859375 -18.703125 L 17.296875 -18.703125 C 16.753906 -18.703125 16.328125 -18.671875 16.015625 -18.609375 C 15.710938 -18.546875 15.472656 -18.414062 15.296875 -18.21875 C 15.128906 -18.03125 15.019531 -17.753906 14.96875 -17.390625 C 14.914062 -17.023438 14.890625 -16.539062 14.890625 -15.9375 L 14.890625 -1.640625 C 14.890625 -0.398438 14.4375 0.21875 13.53125 0.21875 C 13.039062 0.21875 12.6875 0.078125 12.46875 -0.203125 C 12.257812 -0.492188 12.15625 -0.953125 12.15625 -1.578125 L 12.15625 -15.90625 C 12.15625 -16.507812 12.128906 -16.992188 12.078125 -17.359375 C 12.023438 -17.722656 11.914062 -18.003906 11.75 -18.203125 C 11.59375 -18.410156 11.363281 -18.546875 11.0625 -18.609375 C 10.769531 -18.671875 10.375 -18.703125 9.875 -18.703125 L 6.578125 -18.703125 C 6.109375 -18.703125 5.722656 -18.671875 5.421875 -18.609375 C 5.117188 -18.546875 4.878906 -18.414062 4.703125 -18.21875 C 4.535156 -18.03125 4.421875 -17.773438 4.359375 -17.453125 C 4.296875 -17.128906 4.265625 -16.710938 4.265625 -16.203125 L 4.265625 -15.171875 C 4.265625 -14.804688 4.28125 -14.515625 4.3125 -14.296875 C 4.34375 -14.085938 4.394531 -13.90625 4.46875 -13.75 C 4.550781 -13.601562 4.671875 -13.484375 4.828125 -13.390625 C 4.984375 -13.296875 5.191406 -13.195312 5.453125 -13.09375 C 5.898438 -12.914062 6.191406 -12.6875 6.328125 -12.40625 C 6.472656 -12.132812 6.554688 -11.664062 6.578125 -11 L 6.578125 -2.890625 C 6.578125 -1.796875 6.394531 -1.039062 6.03125 -0.625 C 5.664062 -0.207031 5.003906 0 4.046875 0 C 3.078125 0 2.410156 -0.207031 2.046875 -0.625 C 1.679688 -1.039062 1.5 -1.816406 1.5 -2.953125 L 1.5 -18.25 C 1.5 -18.914062 1.539062 -19.453125 1.625 -19.859375 C 1.71875 -20.265625 1.878906 -20.578125 2.109375 -20.796875 C 2.347656 -21.023438 2.679688 -21.179688 3.109375 -21.265625 C 3.535156 -21.347656 4.09375 -21.390625 4.78125 -21.390625 L 21.046875 -21.390625 C 21.703125 -21.390625 22.238281 -21.351562 22.65625 -21.28125 C 23.070312 -21.207031 23.398438 -21.050781 23.640625 -20.8125 C 23.878906 -20.582031 24.035156 -20.253906 24.109375 -19.828125 C 24.179688 -19.398438 24.21875 -18.832031 24.21875 -18.125 Z M 24.21875 -1.609375 "/></g></g></g><g fill="#ffffff" fill-opacity="1"><g transform="translate(103.622537, 199.218268)"><g><path d="M 17.390625 -2.890625 C 17.390625 -2.242188 17.34375 -1.734375 17.25 -1.359375 C 17.164062 -0.984375 16.984375 -0.691406 16.703125 -0.484375 C 16.429688 -0.285156 16.039062 -0.15625 15.53125 -0.09375 C 15.03125 -0.03125 14.351562 0 13.5 0 L 5.125 0 C 4.363281 0 3.742188 -0.0351562 3.265625 -0.109375 C 2.796875 -0.179688 2.425781 -0.320312 2.15625 -0.53125 C 1.894531 -0.75 1.71875 -1.0625 1.625 -1.46875 C 1.539062 -1.875 1.5 -2.398438 1.5 -3.046875 L 1.5 -19.765625 C 1.5 -20.921875 1.953125 -21.5 2.859375 -21.5 C 3.347656 -21.5 3.691406 -21.363281 3.890625 -21.09375 C 4.097656 -20.820312 4.203125 -20.378906 4.203125 -19.765625 L 4.203125 -15.328125 C 4.203125 -14.691406 4.253906 -14.222656 4.359375 -13.921875 C 4.460938 -13.617188 4.664062 -13.414062 4.96875 -13.3125 L 5.515625 -13.0625 C 5.734375 -12.945312 5.910156 -12.835938 6.046875 -12.734375 C 6.179688 -12.628906 6.285156 -12.472656 6.359375 -12.265625 C 6.441406 -12.066406 6.492188 -11.78125 6.515625 -11.40625 C 6.535156 -11.03125 6.546875 -10.539062 6.546875 -9.9375 L 6.546875 -5.125 C 6.546875 -4.59375 6.578125 -4.164062 6.640625 -3.84375 C 6.703125 -3.53125 6.832031 -3.289062 7.03125 -3.125 C 7.238281 -2.96875 7.53125 -2.863281 7.90625 -2.8125 C 8.28125 -2.757812 8.789062 -2.734375 9.4375 -2.734375 L 12.34375 -2.734375 C 12.84375 -2.734375 13.238281 -2.765625 13.53125 -2.828125 C 13.832031 -2.890625 14.066406 -3.003906 14.234375 -3.171875 C 14.410156 -3.347656 14.53125 -3.585938 14.59375 -3.890625 C 14.65625 -4.203125 14.6875 -4.601562 14.6875 -5.09375 L 14.6875 -19.765625 C 14.6875 -20.378906 14.789062 -20.820312 15 -21.09375 C 15.21875 -21.363281 15.5625 -21.5 16.03125 -21.5 C 16.507812 -21.5 16.851562 -21.363281 17.0625 -21.09375 C 17.28125 -20.820312 17.390625 -20.378906 17.390625 -19.765625 Z M 17.390625 -2.890625 "/></g></g></g><g fill="#ffffff" fill-opacity="1"><g transform="translate(124.92096, 199.218268)"><g><path d="M 17.875 -2.890625 C 17.875 -2.285156 17.828125 -1.796875 17.734375 -1.421875 C 17.648438 -1.046875 17.484375 -0.75 17.234375 -0.53125 C 16.992188 -0.320312 16.65625 -0.179688 16.21875 -0.109375 C 15.78125 -0.0351562 15.207031 0 14.5 0 L 3.984375 0 C 3.441406 0 3 -0.046875 2.65625 -0.140625 C 2.320312 -0.234375 2.050781 -0.398438 1.84375 -0.640625 C 1.644531 -0.878906 1.5 -1.195312 1.40625 -1.59375 C 1.320312 -1.988281 1.28125 -2.492188 1.28125 -3.109375 L 1.28125 -6.21875 C 1.28125 -7.3125 1.738281 -7.859375 2.65625 -7.859375 C 3.539062 -7.859375 3.984375 -7.289062 3.984375 -6.15625 L 3.984375 -5.0625 C 3.984375 -4.570312 4.015625 -4.175781 4.078125 -3.875 C 4.140625 -3.582031 4.253906 -3.347656 4.421875 -3.171875 C 4.597656 -3.003906 4.835938 -2.890625 5.140625 -2.828125 C 5.453125 -2.765625 5.851562 -2.734375 6.34375 -2.734375 L 10.65625 -2.734375 C 11.125 -2.734375 11.503906 -2.757812 11.796875 -2.8125 C 12.097656 -2.863281 12.320312 -2.984375 12.46875 -3.171875 C 12.625 -3.367188 12.726562 -3.632812 12.78125 -3.96875 C 12.832031 -4.3125 12.859375 -4.773438 12.859375 -5.359375 L 12.859375 -7.953125 C 12.859375 -8.484375 12.828125 -8.910156 12.765625 -9.234375 C 12.703125 -9.554688 12.570312 -9.796875 12.375 -9.953125 C 12.1875 -10.117188 11.910156 -10.226562 11.546875 -10.28125 C 11.179688 -10.332031 10.703125 -10.359375 10.109375 -10.359375 L 4.171875 -10.359375 C 3.585938 -10.359375 3.109375 -10.398438 2.734375 -10.484375 C 2.367188 -10.578125 2.078125 -10.726562 1.859375 -10.9375 C 1.648438 -11.15625 1.5 -11.445312 1.40625 -11.8125 C 1.320312 -12.1875 1.28125 -12.675781 1.28125 -13.28125 L 1.28125 -18.546875 C 1.28125 -19.203125 1.320312 -19.679688 1.40625 -19.984375 C 1.5 -20.285156 1.660156 -20.550781 1.890625 -20.78125 C 2.128906 -21.019531 2.421875 -21.179688 2.765625 -21.265625 C 3.117188 -21.347656 3.640625 -21.390625 4.328125 -21.390625 L 14.71875 -21.390625 C 15.34375 -21.390625 15.859375 -21.351562 16.265625 -21.28125 C 16.671875 -21.207031 16.988281 -21.078125 17.21875 -20.890625 C 17.457031 -20.710938 17.625 -20.460938 17.71875 -20.140625 C 17.820312 -19.816406 17.875 -19.410156 17.875 -18.921875 L 17.875 -16.71875 C 17.875 -15.445312 17.410156 -14.8125 16.484375 -14.8125 C 15.648438 -14.8125 15.203125 -15.335938 15.140625 -16.390625 L 15.109375 -16.90625 C 15.085938 -17.289062 15.039062 -17.597656 14.96875 -17.828125 C 14.894531 -18.066406 14.769531 -18.25 14.59375 -18.375 C 14.425781 -18.507812 14.191406 -18.597656 13.890625 -18.640625 C 13.585938 -18.679688 13.191406 -18.703125 12.703125 -18.703125 L 6.15625 -18.703125 C 5.707031 -18.703125 5.335938 -18.664062 5.046875 -18.59375 C 4.765625 -18.519531 4.539062 -18.378906 4.375 -18.171875 C 4.21875 -17.972656 4.113281 -17.691406 4.0625 -17.328125 C 4.007812 -16.960938 3.984375 -16.488281 3.984375 -15.90625 C 3.984375 -15.269531 4.007812 -14.765625 4.0625 -14.390625 C 4.113281 -14.015625 4.222656 -13.726562 4.390625 -13.53125 C 4.566406 -13.34375 4.816406 -13.21875 5.140625 -13.15625 C 5.472656 -13.09375 5.921875 -13.0625 6.484375 -13.0625 L 14.6875 -13.0625 C 15.476562 -13.0625 16.046875 -13.023438 16.390625 -12.953125 C 16.734375 -12.890625 17.023438 -12.742188 17.265625 -12.515625 C 17.492188 -12.296875 17.648438 -12.015625 17.734375 -11.671875 C 17.828125 -11.328125 17.875 -10.804688 17.875 -10.109375 Z M 17.875 -2.890625 "/></g></g></g><g fill="#ffffff" fill-opacity="1"><g transform="translate(146.508047, 199.218268)"><g><path d="M 6.515625 -2.25 C 6.515625 -1.457031 6.316406 -0.882812 5.921875 -0.53125 C 5.523438 -0.175781 4.890625 0 4.015625 0 C 3.109375 0 2.460938 -0.171875 2.078125 -0.515625 C 1.691406 -0.859375 1.5 -1.4375 1.5 -2.25 L 1.5 -19.859375 C 1.5 -20.953125 1.960938 -21.5 2.890625 -21.5 C 3.742188 -21.5 4.171875 -20.929688 4.171875 -19.796875 L 4.171875 -15.71875 C 4.171875 -15.25 4.179688 -14.863281 4.203125 -14.5625 C 4.222656 -14.257812 4.265625 -14.019531 4.328125 -13.84375 C 4.390625 -13.675781 4.484375 -13.539062 4.609375 -13.4375 C 4.742188 -13.332031 4.914062 -13.238281 5.125 -13.15625 L 5.453125 -13.03125 C 5.859375 -12.851562 6.132812 -12.640625 6.28125 -12.390625 C 6.4375 -12.148438 6.515625 -11.765625 6.515625 -11.234375 Z M 6.515625 -2.25 "/></g></g></g><g fill="#ffffff" fill-opacity="1"><g transform="translate(156.516351, 199.218268)"><g><path d="M 17.765625 -2.015625 C 17.765625 -1.484375 17.742188 -1.09375 17.703125 -0.84375 C 17.660156 -0.601562 17.585938 -0.40625 17.484375 -0.25 C 17.203125 0.0625 16.847656 0.21875 16.421875 0.21875 C 15.929688 0.21875 15.582031 0.0664062 15.375 -0.234375 C 15.175781 -0.546875 15.078125 -1.066406 15.078125 -1.796875 L 15.078125 -7.46875 C 15.078125 -8.09375 15.050781 -8.59375 15 -8.96875 C 14.945312 -9.34375 14.828125 -9.625 14.640625 -9.8125 C 14.460938 -10.007812 14.203125 -10.140625 13.859375 -10.203125 C 13.515625 -10.265625 13.054688 -10.296875 12.484375 -10.296875 L 8.75 -10.296875 C 8.28125 -10.296875 7.898438 -10.265625 7.609375 -10.203125 C 7.328125 -10.140625 7.101562 -10.007812 6.9375 -9.8125 C 6.78125 -9.625 6.675781 -9.347656 6.625 -8.984375 C 6.570312 -8.617188 6.546875 -8.148438 6.546875 -7.578125 L 6.546875 -2.859375 C 6.546875 -1.765625 6.367188 -1.015625 6.015625 -0.609375 C 5.660156 -0.203125 5.015625 0 4.078125 0 C 3.109375 0 2.4375 -0.195312 2.0625 -0.59375 C 1.6875 -0.988281 1.5 -1.703125 1.5 -2.734375 L 1.5 -19.59375 C 1.5 -20.863281 1.953125 -21.5 2.859375 -21.5 C 3.347656 -21.5 3.695312 -21.34375 3.90625 -21.03125 C 4.125 -20.71875 4.234375 -20.21875 4.234375 -19.53125 L 4.234375 -15.6875 C 4.234375 -15.082031 4.253906 -14.601562 4.296875 -14.25 C 4.335938 -13.90625 4.441406 -13.640625 4.609375 -13.453125 C 4.785156 -13.273438 5.039062 -13.160156 5.375 -13.109375 C 5.707031 -13.054688 6.148438 -13.03125 6.703125 -13.03125 L 9.53125 -13.03125 C 10 -13.03125 10.375 -13.0625 10.65625 -13.125 C 10.945312 -13.1875 11.164062 -13.316406 11.3125 -13.515625 C 11.46875 -13.722656 11.570312 -14.007812 11.625 -14.375 C 11.675781 -14.738281 11.703125 -15.21875 11.703125 -15.8125 L 11.703125 -19.59375 C 11.703125 -20.28125 11.800781 -20.769531 12 -21.0625 C 12.207031 -21.351562 12.550781 -21.5 13.03125 -21.5 C 13.519531 -21.5 13.867188 -21.351562 14.078125 -21.0625 C 14.296875 -20.769531 14.40625 -20.28125 14.40625 -19.59375 L 14.40625 -15.203125 C 14.40625 -14.773438 14.425781 -14.425781 14.46875 -14.15625 C 14.507812 -13.894531 14.59375 -13.679688 14.71875 -13.515625 C 14.851562 -13.359375 15.035156 -13.25 15.265625 -13.1875 C 15.503906 -13.125 15.816406 -13.082031 16.203125 -13.0625 C 16.523438 -13.039062 16.789062 -12.988281 17 -12.90625 C 17.21875 -12.832031 17.378906 -12.695312 17.484375 -12.5 C 17.585938 -12.3125 17.660156 -12.054688 17.703125 -11.734375 C 17.742188 -11.421875 17.765625 -11.003906 17.765625 -10.484375 Z M 17.765625 -2.015625 "/></g></g></g><g fill="#000000" fill-opacity="1"><g transform="translate(187.593742, 199.218282)"><g><path d="M 18.0625 -2.828125 C 18.0625 -2.160156 18.003906 -1.660156 17.890625 -1.328125 C 17.785156 -0.992188 17.609375 -0.710938 17.359375 -0.484375 C 17.117188 -0.285156 16.835938 -0.15625 16.515625 -0.09375 C 16.191406 -0.03125 15.648438 0 14.890625 0 L 4.171875 0 C 3.140625 0 2.4375 -0.203125 2.0625 -0.609375 C 1.6875 -1.015625 1.5 -1.765625 1.5 -2.859375 L 1.5 -18.671875 C 1.5 -19.710938 1.703125 -20.425781 2.109375 -20.8125 C 2.523438 -21.195312 3.296875 -21.390625 4.421875 -21.390625 L 15.234375 -21.390625 C 15.816406 -21.390625 16.289062 -21.347656 16.65625 -21.265625 C 17.03125 -21.179688 17.316406 -21.019531 17.515625 -20.78125 C 17.722656 -20.550781 17.863281 -20.234375 17.9375 -19.828125 C 18.019531 -19.421875 18.0625 -18.882812 18.0625 -18.21875 Z M 6.671875 -18.734375 C 6.117188 -18.734375 5.679688 -18.703125 5.359375 -18.640625 C 5.035156 -18.578125 4.785156 -18.445312 4.609375 -18.25 C 4.441406 -18.0625 4.332031 -17.78125 4.28125 -17.40625 C 4.226562 -17.03125 4.203125 -16.53125 4.203125 -15.90625 C 4.203125 -15.375 4.207031 -14.953125 4.21875 -14.640625 C 4.226562 -14.328125 4.265625 -14.082031 4.328125 -13.90625 C 4.390625 -13.726562 4.476562 -13.585938 4.59375 -13.484375 C 4.71875 -13.390625 4.875 -13.300781 5.0625 -13.21875 L 5.609375 -12.953125 C 5.867188 -12.847656 6.0625 -12.710938 6.1875 -12.546875 C 6.320312 -12.390625 6.410156 -12.164062 6.453125 -11.875 C 6.472656 -11.738281 6.488281 -11.585938 6.5 -11.421875 C 6.507812 -11.265625 6.515625 -10.890625 6.515625 -10.296875 L 6.515625 -5.484375 C 6.515625 -4.867188 6.539062 -4.378906 6.59375 -4.015625 C 6.644531 -3.648438 6.769531 -3.367188 6.96875 -3.171875 C 7.175781 -2.984375 7.46875 -2.863281 7.84375 -2.8125 C 8.21875 -2.757812 8.722656 -2.734375 9.359375 -2.734375 L 13.09375 -2.734375 C 13.582031 -2.734375 13.972656 -2.765625 14.265625 -2.828125 C 14.566406 -2.890625 14.796875 -3.007812 14.953125 -3.1875 C 15.117188 -3.375 15.226562 -3.640625 15.28125 -3.984375 C 15.332031 -4.335938 15.359375 -4.804688 15.359375 -5.390625 L 15.359375 -15.390625 C 15.359375 -16.179688 15.335938 -16.800781 15.296875 -17.25 C 15.253906 -17.707031 15.144531 -18.039062 14.96875 -18.25 C 14.800781 -18.46875 14.53125 -18.601562 14.15625 -18.65625 C 13.78125 -18.707031 13.273438 -18.734375 12.640625 -18.734375 Z M 6.671875 -18.734375 "/></g></g></g><g fill="#000000" fill-opacity="1"><g transform="translate(207.12694, 199.218282)"><g><path d="M 6.515625 -2.25 C 6.515625 -1.457031 6.316406 -0.882812 5.921875 -0.53125 C 5.523438 -0.175781 4.890625 0 4.015625 0 C 3.109375 0 2.460938 -0.171875 2.078125 -0.515625 C 1.691406 -0.859375 1.5 -1.4375 1.5 -2.25 L 1.5 -19.859375 C 1.5 -20.953125 1.960938 -21.5 2.890625 -21.5 C 3.742188 -21.5 4.171875 -20.929688 4.171875 -19.796875 L 4.171875 -15.71875 C 4.171875 -15.25 4.179688 -14.863281 4.203125 -14.5625 C 4.222656 -14.257812 4.265625 -14.019531 4.328125 -13.84375 C 4.390625 -13.675781 4.484375 -13.539062 4.609375 -13.4375 C 4.742188 -13.332031 4.914062 -13.238281 5.125 -13.15625 L 5.453125 -13.03125 C 5.859375 -12.851562 6.132812 -12.640625 6.28125 -12.390625 C 6.4375 -12.148438 6.515625 -11.765625 6.515625 -11.234375 Z M 6.515625 -2.25 "/></g></g></g><g fill="#000000" fill-opacity="1"><g transform="translate(214.696451, 199.218282)"><g><path d="M 17.875 -2.890625 C 17.875 -2.285156 17.828125 -1.796875 17.734375 -1.421875 C 17.648438 -1.046875 17.484375 -0.75 17.234375 -0.53125 C 16.992188 -0.320312 16.65625 -0.179688 16.21875 -0.109375 C 15.78125 -0.0351562 15.207031 0 14.5 0 L 3.984375 0 C 3.441406 0 3 -0.046875 2.65625 -0.140625 C 2.320312 -0.234375 2.050781 -0.398438 1.84375 -0.640625 C 1.644531 -0.878906 1.5 -1.195312 1.40625 -1.59375 C 1.320312 -1.988281 1.28125 -2.492188 1.28125 -3.109375 L 1.28125 -6.21875 C 1.28125 -7.3125 1.738281 -7.859375 2.65625 -7.859375 C 3.539062 -7.859375 3.984375 -7.289062 3.984375 -6.15625 L 3.984375 -5.0625 C 3.984375 -4.570312 4.015625 -4.175781 4.078125 -3.875 C 4.140625 -3.582031 4.253906 -3.347656 4.421875 -3.171875 C 4.597656 -3.003906 4.835938 -2.890625 5.140625 -2.828125 C 5.453125 -2.765625 5.851562 -2.734375 6.34375 -2.734375 L 10.65625 -2.734375 C 11.125 -2.734375 11.503906 -2.757812 11.796875 -2.8125 C 12.097656 -2.863281 12.320312 -2.984375 12.46875 -3.171875 C 12.625 -3.367188 12.726562 -3.632812 12.78125 -3.96875 C 12.832031 -4.3125 12.859375 -4.773438 12.859375 -5.359375 L 12.859375 -7.953125 C 12.859375 -8.484375 12.828125 -8.910156 12.765625 -9.234375 C 12.703125 -9.554688 12.570312 -9.796875 12.375 -9.953125 C 12.1875 -10.117188 11.910156 -10.226562 11.546875 -10.28125 C 11.179688 -10.332031 10.703125 -10.359375 10.109375 -10.359375 L 4.171875 -10.359375 C 3.585938 -10.359375 3.109375 -10.398438 2.734375 -10.484375 C 2.367188 -10.578125 2.078125 -10.726562 1.859375 -10.9375 C 1.648438 -11.15625 1.5 -11.445312 1.40625 -11.8125 C 1.320312 -12.1875 1.28125 -12.675781 1.28125 -13.28125 L 1.28125 -18.546875 C 1.28125 -19.203125 1.320312 -19.679688 1.40625 -19.984375 C 1.5 -20.285156 1.660156 -20.550781 1.890625 -20.78125 C 2.128906 -21.019531 2.421875 -21.179688 2.765625 -21.265625 C 3.117188 -21.347656 3.640625 -21.390625 4.328125 -21.390625 L 14.71875 -21.390625 C 15.34375 -21.390625 15.859375 -21.351562 16.265625 -21.28125 C 16.671875 -21.207031 16.988281 -21.078125 17.21875 -20.890625 C 17.457031 -20.710938 17.625 -20.460938 17.71875 -20.140625 C 17.820312 -19.816406 17.875 -19.410156 17.875 -18.921875 L 17.875 -16.71875 C 17.875 -15.445312 17.410156 -14.8125 16.484375 -14.8125 C 15.648438 -14.8125 15.203125 -15.335938 15.140625 -16.390625 L 15.109375 -16.90625 C 15.085938 -17.289062 15.039062 -17.597656 14.96875 -17.828125 C 14.894531 -18.066406 14.769531 -18.25 14.59375 -18.375 C 14.425781 -18.507812 14.191406 -18.597656 13.890625 -18.640625 C 13.585938 -18.679688 13.191406 -18.703125 12.703125 -18.703125 L 6.15625 -18.703125 C 5.707031 -18.703125 5.335938 -18.664062 5.046875 -18.59375 C 4.765625 -18.519531 4.539062 -18.378906 4.375 -18.171875 C 4.21875 -17.972656 4.113281 -17.691406 4.0625 -17.328125 C 4.007812 -16.960938 3.984375 -16.488281 3.984375 -15.90625 C 3.984375 -15.269531 4.007812 -14.765625 4.0625 -14.390625 C 4.113281 -14.015625 4.222656 -13.726562 4.390625 -13.53125 C 4.566406 -13.34375 4.816406 -13.21875 5.140625 -13.15625 C 5.472656 -13.09375 5.921875 -13.0625 6.484375 -13.0625 L 14.6875 -13.0625 C 15.476562 -13.0625 16.046875 -13.023438 16.390625 -12.953125 C 16.734375 -12.890625 17.023438 -12.742188 17.265625 -12.515625 C 17.492188 -12.296875 17.648438 -12.015625 17.734375 -11.671875 C 17.828125 -11.328125 17.875 -10.804688 17.875 -10.109375 Z M 17.875 -2.890625 "/></g></g></g><g fill="#000000" fill-opacity="1"><g transform="translate(233.84475, 199.218282)"><g><path d="M 17.765625 -2.015625 C 17.765625 -1.484375 17.742188 -1.09375 17.703125 -0.84375 C 17.660156 -0.601562 17.585938 -0.40625 17.484375 -0.25 C 17.203125 0.0625 16.847656 0.21875 16.421875 0.21875 C 15.929688 0.21875 15.582031 0.0664062 15.375 -0.234375 C 15.175781 -0.546875 15.078125 -1.066406 15.078125 -1.796875 L 15.078125 -7.46875 C 15.078125 -8.09375 15.050781 -8.59375 15 -8.96875 C 14.945312 -9.34375 14.828125 -9.625 14.640625 -9.8125 C 14.460938 -10.007812 14.203125 -10.140625 13.859375 -10.203125 C 13.515625 -10.265625 13.054688 -10.296875 12.484375 -10.296875 L 8.75 -10.296875 C 8.28125 -10.296875 7.898438 -10.265625 7.609375 -10.203125 C 7.328125 -10.140625 7.101562 -10.007812 6.9375 -9.8125 C 6.78125 -9.625 6.675781 -9.347656 6.625 -8.984375 C 6.570312 -8.617188 6.546875 -8.148438 6.546875 -7.578125 L 6.546875 -2.859375 C 6.546875 -1.765625 6.367188 -1.015625 6.015625 -0.609375 C 5.660156 -0.203125 5.015625 0 4.078125 0 C 3.109375 0 2.4375 -0.195312 2.0625 -0.59375 C 1.6875 -0.988281 1.5 -1.703125 1.5 -2.734375 L 1.5 -19.59375 C 1.5 -20.863281 1.953125 -21.5 2.859375 -21.5 C 3.347656 -21.5 3.695312 -21.34375 3.90625 -21.03125 C 4.125 -20.71875 4.234375 -20.21875 4.234375 -19.53125 L 4.234375 -15.6875 C 4.234375 -15.082031 4.253906 -14.601562 4.296875 -14.25 C 4.335938 -13.90625 4.441406 -13.640625 4.609375 -13.453125 C 4.785156 -13.273438 5.039062 -13.160156 5.375 -13.109375 C 5.707031 -13.054688 6.148438 -13.03125 6.703125 -13.03125 L 9.53125 -13.03125 C 10 -13.03125 10.375 -13.0625 10.65625 -13.125 C 10.945312 -13.1875 11.164062 -13.316406 11.3125 -13.515625 C 11.46875 -13.722656 11.570312 -14.007812 11.625 -14.375 C 11.675781 -14.738281 11.703125 -15.21875 11.703125 -15.8125 L 11.703125 -19.59375 C 11.703125 -20.28125 11.800781 -20.769531 12 -21.0625 C 12.207031 -21.351562 12.550781 -21.5 13.03125 -21.5 C 13.519531 -21.5 13.867188 -21.351562 14.078125 -21.0625 C 14.296875 -20.769531 14.40625 -20.28125 14.40625 -19.59375 L 14.40625 -15.203125 C 14.40625 -14.773438 14.425781 -14.425781 14.46875 -14.15625 C 14.507812 -13.894531 14.59375 -13.679688 14.71875 -13.515625 C 14.851562 -13.359375 15.035156 -13.25 15.265625 -13.1875 C 15.503906 -13.125 15.816406 -13.082031 16.203125 -13.0625 C 16.523438 -13.039062 16.789062 -12.988281 17 -12.90625 C 17.21875 -12.832031 17.378906 -12.695312 17.484375 -12.5 C 17.585938 -12.3125 17.660156 -12.054688 17.703125 -11.734375 C 17.742188 -11.421875 17.765625 -11.003906 17.765625 -10.484375 Z M 17.765625 -2.015625 "/></g></g></g><g fill="#000000" fill-opacity="1"><g transform="translate(252.672317, 199.218282)"><g><path d="M 6.515625 -5.421875 C 6.515625 -4.796875 6.539062 -4.304688 6.59375 -3.953125 C 6.644531 -3.609375 6.757812 -3.34375 6.9375 -3.15625 C 7.125 -2.976562 7.394531 -2.863281 7.75 -2.8125 C 8.101562 -2.757812 8.585938 -2.734375 9.203125 -2.734375 L 12.546875 -2.734375 C 13.316406 -2.734375 13.859375 -2.628906 14.171875 -2.421875 C 14.492188 -2.210938 14.65625 -1.863281 14.65625 -1.375 C 14.65625 -0.882812 14.492188 -0.53125 14.171875 -0.3125 C 13.859375 -0.101562 13.328125 0 12.578125 0 L 4.390625 0 C 3.835938 0 3.375 -0.0390625 3 -0.125 C 2.625 -0.207031 2.320312 -0.347656 2.09375 -0.546875 C 1.875 -0.753906 1.71875 -1.03125 1.625 -1.375 C 1.539062 -1.71875 1.5 -2.144531 1.5 -2.65625 L 1.5 -18.3125 C 1.5 -18.9375 1.535156 -19.453125 1.609375 -19.859375 C 1.691406 -20.265625 1.835938 -20.578125 2.046875 -20.796875 C 2.265625 -21.023438 2.5625 -21.179688 2.9375 -21.265625 C 3.3125 -21.347656 3.796875 -21.390625 4.390625 -21.390625 L 12.921875 -21.390625 C 14.054688 -21.390625 14.625 -20.929688 14.625 -20.015625 C 14.625 -19.140625 14.054688 -18.703125 12.921875 -18.703125 L 6.546875 -18.703125 C 6.035156 -18.703125 5.625 -18.671875 5.3125 -18.609375 C 5 -18.546875 4.757812 -18.40625 4.59375 -18.1875 C 4.4375 -17.976562 4.332031 -17.671875 4.28125 -17.265625 C 4.226562 -16.859375 4.203125 -16.320312 4.203125 -15.65625 C 4.203125 -15.125 4.226562 -14.6875 4.28125 -14.34375 C 4.332031 -14 4.425781 -13.726562 4.5625 -13.53125 C 4.707031 -13.34375 4.898438 -13.21875 5.140625 -13.15625 C 5.390625 -13.09375 5.707031 -13.0625 6.09375 -13.0625 L 12.125 -13.0625 C 12.675781 -13.0625 13.054688 -13.046875 13.265625 -13.015625 C 13.484375 -12.992188 13.679688 -12.960938 13.859375 -12.921875 C 14.085938 -12.835938 14.273438 -12.679688 14.421875 -12.453125 C 14.578125 -12.234375 14.65625 -11.984375 14.65625 -11.703125 C 14.65625 -11.296875 14.519531 -10.96875 14.25 -10.71875 C 13.988281 -10.476562 13.644531 -10.359375 13.21875 -10.359375 L 9.015625 -10.359375 C 8.429688 -10.359375 7.972656 -10.332031 7.640625 -10.28125 C 7.316406 -10.226562 7.066406 -10.085938 6.890625 -9.859375 C 6.722656 -9.640625 6.617188 -9.3125 6.578125 -8.875 C 6.535156 -8.4375 6.515625 -7.84375 6.515625 -7.09375 Z M 6.515625 -5.421875 "/></g></g></g><g fill="#000000" fill-opacity="1"><g transform="translate(268.388682, 199.218282)"><g><path d="M 12.03125 -2.59375 C 12.03125 -1.632812 11.847656 -0.960938 11.484375 -0.578125 C 11.117188 -0.191406 10.46875 0 9.53125 0 C 8.582031 0 7.925781 -0.191406 7.5625 -0.578125 C 7.207031 -0.960938 7.03125 -1.632812 7.03125 -2.59375 L 7.03125 -15.9375 C 7.03125 -16.34375 7.023438 -16.671875 7.015625 -16.921875 C 7.003906 -17.171875 6.976562 -17.375 6.9375 -17.53125 C 6.90625 -17.6875 6.863281 -17.8125 6.8125 -17.90625 C 6.757812 -18.007812 6.691406 -18.113281 6.609375 -18.21875 C 6.503906 -18.320312 6.394531 -18.40625 6.28125 -18.46875 C 6.175781 -18.539062 6.035156 -18.59375 5.859375 -18.625 C 5.691406 -18.65625 5.472656 -18.675781 5.203125 -18.6875 C 4.941406 -18.695312 4.585938 -18.703125 4.140625 -18.703125 L 2.53125 -18.703125 C 1.875 -18.703125 1.394531 -18.800781 1.09375 -19 C 0.789062 -19.207031 0.640625 -19.554688 0.640625 -20.046875 C 0.640625 -20.515625 0.796875 -20.851562 1.109375 -21.0625 C 1.421875 -21.28125 1.914062 -21.390625 2.59375 -21.390625 L 14.46875 -21.390625 C 15.257812 -21.390625 15.804688 -21.289062 16.109375 -21.09375 C 16.421875 -20.90625 16.578125 -20.566406 16.578125 -20.078125 C 16.578125 -19.796875 16.519531 -19.546875 16.40625 -19.328125 C 16.289062 -19.117188 16.132812 -18.972656 15.9375 -18.890625 C 15.769531 -18.804688 15.566406 -18.753906 15.328125 -18.734375 C 15.097656 -18.710938 14.738281 -18.703125 14.25 -18.703125 L 11.9375 -18.703125 C 11.46875 -18.703125 11.085938 -18.671875 10.796875 -18.609375 C 10.503906 -18.546875 10.273438 -18.414062 10.109375 -18.21875 C 9.953125 -18.03125 9.847656 -17.765625 9.796875 -17.421875 C 9.742188 -17.078125 9.71875 -16.640625 9.71875 -16.109375 C 9.71875 -15.523438 9.726562 -15.054688 9.75 -14.703125 C 9.769531 -14.347656 9.8125 -14.066406 9.875 -13.859375 C 9.9375 -13.660156 10.023438 -13.515625 10.140625 -13.421875 C 10.265625 -13.328125 10.425781 -13.238281 10.625 -13.15625 L 11.03125 -12.984375 C 11.4375 -12.816406 11.703125 -12.585938 11.828125 -12.296875 C 11.960938 -12.015625 12.03125 -11.476562 12.03125 -10.6875 Z M 12.03125 -2.59375 "/></g></g></g><g fill="#000000" fill-opacity="1"><g transform="translate(285.612531, 199.218282)"><g><path d="M 12.03125 -2.59375 C 12.03125 -1.632812 11.847656 -0.960938 11.484375 -0.578125 C 11.117188 -0.191406 10.46875 0 9.53125 0 C 8.582031 0 7.925781 -0.191406 7.5625 -0.578125 C 7.207031 -0.960938 7.03125 -1.632812 7.03125 -2.59375 L 7.03125 -15.9375 C 7.03125 -16.34375 7.023438 -16.671875 7.015625 -16.921875 C 7.003906 -17.171875 6.976562 -17.375 6.9375 -17.53125 C 6.90625 -17.6875 6.863281 -17.8125 6.8125 -17.90625 C 6.757812 -18.007812 6.691406 -18.113281 6.609375 -18.21875 C 6.503906 -18.320312 6.394531 -18.40625 6.28125 -18.46875 C 6.175781 -18.539062 6.035156 -18.59375 5.859375 -18.625 C 5.691406 -18.65625 5.472656 -18.675781 5.203125 -18.6875 C 4.941406 -18.695312 4.585938 -18.703125 4.140625 -18.703125 L 2.53125 -18.703125 C 1.875 -18.703125 1.394531 -18.800781 1.09375 -19 C 0.789062 -19.207031 0.640625 -19.554688 0.640625 -20.046875 C 0.640625 -20.515625 0.796875 -20.851562 1.109375 -21.0625 C 1.421875 -21.28125 1.914062 -21.390625 2.59375 -21.390625 L 14.46875 -21.390625 C 15.257812 -21.390625 15.804688 -21.289062 16.109375 -21.09375 C 16.421875 -20.90625 16.578125 -20.566406 16.578125 -20.078125 C 16.578125 -19.796875 16.519531 -19.546875 16.40625 -19.328125 C 16.289062 -19.117188 16.132812 -18.972656 15.9375 -18.890625 C 15.769531 -18.804688 15.566406 -18.753906 15.328125 -18.734375 C 15.097656 -18.710938 14.738281 -18.703125 14.25 -18.703125 L 11.9375 -18.703125 C 11.46875 -18.703125 11.085938 -18.671875 10.796875 -18.609375 C 10.503906 -18.546875 10.273438 -18.414062 10.109375 -18.21875 C 9.953125 -18.03125 9.847656 -17.765625 9.796875 -17.421875 C 9.742188 -17.078125 9.71875 -16.640625 9.71875 -16.109375 C 9.71875 -15.523438 9.726562 -15.054688 9.75 -14.703125 C 9.769531 -14.347656 9.8125 -14.066406 9.875 -13.859375 C 9.9375 -13.660156 10.023438 -13.515625 10.140625 -13.421875 C 10.265625 -13.328125 10.425781 -13.238281 10.625 -13.15625 L 11.03125 -12.984375 C 11.4375 -12.816406 11.703125 -12.585938 11.828125 -12.296875 C 11.960938 -12.015625 12.03125 -11.476562 12.03125 -10.6875 Z M 12.03125 -2.59375 "/></g></g></g><g fill="#000000" fill-opacity="1"><g transform="translate(302.83638, 199.218282)"><g><path d="M 6.515625 -5.421875 C 6.515625 -4.796875 6.539062 -4.304688 6.59375 -3.953125 C 6.644531 -3.609375 6.757812 -3.34375 6.9375 -3.15625 C 7.125 -2.976562 7.394531 -2.863281 7.75 -2.8125 C 8.101562 -2.757812 8.585938 -2.734375 9.203125 -2.734375 L 12.546875 -2.734375 C 13.316406 -2.734375 13.859375 -2.628906 14.171875 -2.421875 C 14.492188 -2.210938 14.65625 -1.863281 14.65625 -1.375 C 14.65625 -0.882812 14.492188 -0.53125 14.171875 -0.3125 C 13.859375 -0.101562 13.328125 0 12.578125 0 L 4.390625 0 C 3.835938 0 3.375 -0.0390625 3 -0.125 C 2.625 -0.207031 2.320312 -0.347656 2.09375 -0.546875 C 1.875 -0.753906 1.71875 -1.03125 1.625 -1.375 C 1.539062 -1.71875 1.5 -2.144531 1.5 -2.65625 L 1.5 -18.3125 C 1.5 -18.9375 1.535156 -19.453125 1.609375 -19.859375 C 1.691406 -20.265625 1.835938 -20.578125 2.046875 -20.796875 C 2.265625 -21.023438 2.5625 -21.179688 2.9375 -21.265625 C 3.3125 -21.347656 3.796875 -21.390625 4.390625 -21.390625 L 12.921875 -21.390625 C 14.054688 -21.390625 14.625 -20.929688 14.625 -20.015625 C 14.625 -19.140625 14.054688 -18.703125 12.921875 -18.703125 L 6.546875 -18.703125 C 6.035156 -18.703125 5.625 -18.671875 5.3125 -18.609375 C 5 -18.546875 4.757812 -18.40625 4.59375 -18.1875 C 4.4375 -17.976562 4.332031 -17.671875 4.28125 -17.265625 C 4.226562 -16.859375 4.203125 -16.320312 4.203125 -15.65625 C 4.203125 -15.125 4.226562 -14.6875 4.28125 -14.34375 C 4.332031 -14 4.425781 -13.726562 4.5625 -13.53125 C 4.707031 -13.34375 4.898438 -13.21875 5.140625 -13.15625 C 5.390625 -13.09375 5.707031 -13.0625 6.09375 -13.0625 L 12.125 -13.0625 C 12.675781 -13.0625 13.054688 -13.046875 13.265625 -13.015625 C 13.484375 -12.992188 13.679688 -12.960938 13.859375 -12.921875 C 14.085938 -12.835938 14.273438 -12.679688 14.421875 -12.453125 C 14.578125 -12.234375 14.65625 -11.984375 14.65625 -11.703125 C 14.65625 -11.296875 14.519531 -10.96875 14.25 -10.71875 C 13.988281 -10.476562 13.644531 -10.359375 13.21875 -10.359375 L 9.015625 -10.359375 C 8.429688 -10.359375 7.972656 -10.332031 7.640625 -10.28125 C 7.316406 -10.226562 7.066406 -10.085938 6.890625 -9.859375 C 6.722656 -9.640625 6.617188 -9.3125 6.578125 -8.875 C 6.535156 -8.4375 6.515625 -7.84375 6.515625 -7.09375 Z M 6.515625 -5.421875 "/></g></g></g></svg>